<?xml version="1.0" encoding="UTF-8"?>
<svg id="bg-illust" xmlns="http://www.w3.org/2000/svg" xmlns:xlink="http://www.w3.org/1999/xlink" viewBox="0 0 2400 1260">
  <defs>
    <style>
      .cls-1, .cls-2 {
        fill: none;
      }

      .cls-3 {
        clip-path: url(#clippath-1);
      }

      .cls-2 {
        stroke: #000;
        stroke-miterlimit: 10;
      }

      .cls-4 {
        clip-path: url(#clippath);
      }
    </style>
    <clipPath id="clippath">
      <rect class="cls-1" y="0" width="2400" height="1260"/>
    </clipPath>
    <clipPath id="clippath-1">
      <rect class="cls-1" x="2516.97" y="1.8" width="2400" height="1260"/>
    </clipPath>
  </defs>
  <g class="cls-4">
    <g>
      <g>
        <path class="cls-2" d="M2683.18,180.65h-16.35v59.97h-19.46v39.72h-20.24v20.25h-20.24v20.25h-39.71v19.47h-20.24v20.25h-39.71v20.25h-119.9v-20.25h-39.71v-20.25h-59.95v-19.47h-19.46v-20.25h-20.24v-20.25h-20.24v40.5h20.24v59.97h20.24v39.72h-40.49v19.47h-19.46v-19.47h-40.49v19.47h20.24v20.25h20.24v20.25h19.46v19.47h20.24v59.97h20.24v-39.72c13.22-.03,26.48.05,39.71,0-.02,6.74.02,13.51,0,20.25h-20.24v19.47h20.24v80.21h59.95v19.47h-20.24v59.97h-20.24v40.5c6.74.03,13.51-.05,20.24,0-.04,13.23.03,26.49,0,39.72h20.24v19.47h-20.24v80.21h39.71v20.25h119.9v-20.25h39.71v-20.25h20.24v-19.47h20.24v-20.25h19.46v-39.72h-79.41v19.47h-20.24v-79.43h20.24v-20.25h-39.71v20.25h-20.24v20.25h-39.71v19.47h-59.95v-19.47c-6.74-.03-13.51.05-20.24,0,.02-6.74-.02-13.51,0-20.25h39.71v-20.25h20.24v-19.47h20.24v-20.25h19.46v-79.43h20.24v-20.25h-119.9v-20.25h80.19v-39.72h-20.24c-.02-6.74.02-13.51,0-20.25,19.97-.02,39.98.01,59.95,0v-19.47h20.24c-.03,13.23.04,26.49,0,39.72-6.74.02-13.51-.02-20.24,0v20.25h20.24c.02-6.74-.02-13.51,0-20.25,13.22-.04,26.48.03,39.71,0v-20.25h19.46v-19.47h-19.46v-20.25h59.95v-20.25h-40.49v-19.47h-19.46v-20.25h39.71v20.25h39.71v39.72h20.24v20.25h56.06M2327.37-110.61v12.46h-39.71v19.47h-39.71v20.25h-39.71v19.47h-40.49v20.25h-19.46v159.65h19.46v39.72h20.24v20.25h39.71v59.97c13.48-.04,27,.05,40.49,0-.02-6.74.02-13.51,0-20.25-6.74-.03-13.51.02-20.24,0v-19.47h20.24c.02,6.48-.02,12.99,0,19.47,6.48.03,12.99-.02,19.46,0v20.25c-6.48.02-12.99-.02-19.46,0,.02,6.48-.02,12.99,0,19.47h19.46v20.25h39.71v20.25h179.85v-20.25h20.24v-20.25h39.71v-19.47h20.24v-20.25h19.46v-19.47h20.24v-20.25h20.24v-39.72h19.46v-40.5h16.35M2107.81-110.61v31.93h-19.46v20.25h19.46V-18.72h-19.46v59.97h19.46v20.25h20.24V-58.44h20.24v-39.72h19.46v-12.46M1694.39-110.61,1694.39-58.44h14.79v-20.25h-14.79M1694.39,80.96h14.79v-19.47h-14.79M1694.39,600.41h14.79v-20.25h19.46v-20.25h20.24v-19.47h39.71v-20.25h59.95v-20.25h-39.71v-19.47h-59.95v-20.25h39.71v-20.25h39.71v-19.47h40.49v-20.25h39.71v-19.47h20.24v-100.46h19.46v20.25h20.24v39.72h20.24v20.25h19.46v20.25h-19.46v19.47h-40.49v20.25h-19.46v19.47h-20.24v20.25h-39.71v39.72h59.95v20.25h19.46v20.25h20.24v19.47h20.24v40.5h19.46v19.47h39.71v-19.47h20.24v-20.25h20.24v-20.25h39.71v-19.47h20.24v-20.25h19.46v-59.97h-19.46v-20.25h-20.24v-19.47h-39.71v19.47h-20.24v20.25h-20.24v-20.25h-19.46v-19.47h-20.24v-20.25h39.71v-19.47h59.95v-20.25h59.95v-20.25h20.24v-19.47h20.24v-40.5h-20.24v-39.72h-20.24v-39.72h-19.46v-39.72h-20.24v-80.21h-39.71v39.72h-20.24v20.25h-20.24v20.25h-39.71v19.47h-19.46v20.25h-20.24v39.72h-59.95v-19.47h-20.24v19.47h-59.95v39.72h-19.46v-59.19h-20.24v-20.25h-39.71v-20.25h-20.24v-19.47h-19.46v-59.97h-14.79M1694.39,799.77h14.79c.03,6.48-.02,12.99,0,19.47h39.71v20.25h99.66v39.72h20.24v20.25h-20.24v59.97h20.24v19.47h19.46v-19.47h20.24v-39.72h20.24v-59.97h19.46v-20.25h40.49v20.25h19.46v19.47h59.95v-19.47h20.24v-20.25h79.41v-20.25h20.24v-39.72h-20.24v-39.72h-39.71v-20.25h-39.71c-.01-6.48.02-12.99,0-19.47,6.48-.02,12.99.01,19.46,0v-20.25h-19.46c.01,6.74-.02,13.51,0,20.25-6.74.02-13.51-.01-20.24,0v-20.25h-20.24v39.72h-19.46v20.25h-20.24v39.72h-59.95v-19.47h20.24v-80.21h20.24v-39.72h-20.24v-59.97h-20.24v-20.25h-19.46v-19.47h-20.24v-20.25h-39.71v20.25h19.46v19.47h20.24v20.25h20.24v20.25h19.46v79.43h-59.95v20.25h-19.46v19.47c-6.74.03-13.51-.05-20.24,0-.02,6.74.02,13.51,0,20.25h-20.24v-20.25c6.74-.03,13.51.05,20.24,0,.04-13.23-.03-26.49,0-39.72h-20.24v20.25h-19.46v39.72h-20.24v20.25h20.24v19.47h-20.24v20.25h-79.41c-.03-6.74.02-13.51,0-20.25h-14.8M1694.39,1038.86h74.74v-19.47h39.71v-40.5h19.46v-39.72h-19.46v-39.72h-20.24v-20.25h-19.46v-19.47h-74.74M1694.39,1179.04h14.79v19.47h39.71v20.25h39.71v20.25h59.95v-40.5h20.24v-39.72h19.46v-79.43h-19.46v-20.25h-20.24v-20.25h-39.71v20.25h-20.24v39.72h-19.46v-19.47h-59.95c.02-6.74-.02-13.51,0-20.25h-14.8M1928.74,1370.61v-12.46h19.46v-39.72h20.24v-39.72h-20.24v-39.72h-19.46v-20.25h-40.49v20.25h-19.46v19.47h-20.24v20.25h-39.71v-20.25h-80.19v20.25h-19.46v59.97h-14.79M2287.66,1370.61v-12.46h20.24v-19.47h-39.71v19.47h-20.24v12.46M2606.88,1370.61v-31.93h-19.46v-20.25h-20.24v20.25h-59.95v-20.25h20.24v-39.72h19.46v-20.25h-39.71v20.25h-19.46v19.47h-59.95v20.25h-20.24c0-6.74,0-13.51,0-20.25h-20.24v20.25c0,1.01,18.42,0,20.24,0v20.25h-39.71v31.93M1808.84-18.72h-59.95V1.53h-20.24v19.47h20.24v20.25h20.24v20.25h19.46v19.47h20.24v-39.72h39.71V1.53h-39.71v-20.25ZM1868.79,80.96c33.21-.11,66.45.08,99.66,0v-19.47h20.24v-20.25h19.46V1.53h-39.71v-20.25h-20.24V1.53h-39.71v19.47h-20.24v40.5h-19.46c-.02,6.48.02,12.99,0,19.47-6.74.02-13.51-.02-20.24,0v39.72h20.24c.03-13.23-.05-26.49,0-39.72ZM2188.01,559.91h-39.71v20.25h-20.24v59.97h20.24v-39.72h19.46v-20.25h20.24v-20.25ZM1788.6,640.12c-.03-13.23.02-26.49,0-39.72h-19.46l1.55,39.72c5.96.01,11.95-.03,17.91,0,.03,13.23-.02,26.49,0,39.72h20.24v-39.72c-6.74-.02-13.51.03-20.24,0ZM2247.96,600.41h-20.24v19.47h20.24v-19.47ZM2546.93,619.88h-19.46v20.25h19.46v-20.25ZM1868.79,640.12h-20.24v19.47h20.24v-19.47ZM2227.71,640.12h-19.46v39.72h-20.24v39.72h39.71v-19.47h20.24v-20.25h20.24v-20.25h-40.49v-19.47ZM2167.76,659.59h-19.46v20.25h19.46v-20.25ZM2268.2,760.06h-40.49v19.47h-19.46v39.72h19.46v-19.47h20.24v-20.25h20.24v-19.47ZM2307.91,819.24h-20.24v20.25h-19.46v20.25h-20.24v19.47h39.71v-19.47h20.24v-40.5ZM2188.01,879.21h-80.19v40.5h-19.46v19.47h-20.24v20.25h20.24v19.47h19.46v40.5h20.24v39.72h20.24v20.25h19.46v19.47h20.24v-19.47h39.71v-20.25h20.24v-20.25h39.71v-19.47h20.24v-40.5h19.46v-19.47h-19.46v-39.72h-39.71v-20.25h-40.49v39.72h-19.46v-19.47h-20.24v-40.5ZM2028.4,959.42h-39.71v19.47h-20.24v20.25h-20.24v59.97h20.24v-20.25h20.24v-39.72h19.46v-20.25h20.24v-19.47ZM2467.51,1098.82c.03-6.48-.02-12.99,0-19.47h20.24v-20.25h79.41v-20.25h39.71v-39.72h-19.46v-20.25h-40.49v-19.47h-179.07v19.47h-20.24v40.5h20.24v39.72h-20.24v39.72h-39.71v20.25h19.46v19.47h20.24v20.25h-20.24v20.25h59.95v19.47h-19.46v59.97h-20.24v20.25h59.95v-20.25h39.71v-19.47h20.24v-20.25h20.24v-20.25h-20.24v-39.72h20.24v-20.25h39.71v-19.47h-20.24v-20.25h-39.71c-.03,6.74.02,13.51,0,20.25h-39.71v-20.25h39.71ZM1908.5,999.14h-39.71v20.25h19.46v19.47h20.24v-39.72ZM2028.4,1019.39h-20.24v19.47h20.24v-19.47ZM2068.11,1079.35h-39.71v19.47h-20.24v20.25h-19.46v39.72h-20.24v20.25h59.95v-40.5h39.71v-19.47h20.24v-20.25h-20.24v-19.47ZM1968.45,1119.07h-20.24v19.47h20.24v-19.47ZM2247.96,1119.07h-20.24v19.47h-19.46v40.5h19.46v-20.25h20.24v-39.72ZM2587.41,1119.07h-20.24v39.72h-20.24v39.72h20.24v-19.47h20.24v-59.97ZM2188.01,1158.79h-20.24v20.25h20.24v-20.25ZM2028.4,1198.51h-20.24v40.5h20.24v-40.5ZM2128.06,1218.75c-6.74-.05-13.51.03-20.24,0v-20.25h-19.46v40.5h19.46v19.47h-19.46v20.25h-20.24c-.02-6.74.02-13.51,0-20.25h-20.24v20.25h20.24c.04,13.23-.03,26.49,0,39.72h20.24v-20.25h59.95v-19.47h19.46v-20.25h20.24v-59.97h-59.95v20.25c6.74.05,13.51-.03,20.24,0v20.25h-20.24c0-6.74,0-13.51,0-20.25ZM2287.66,1198.51h-59.95v20.25h59.95v-20.25ZM2247.96,1258.47h-39.71v39.72h-20.24v20.25h39.71v-20.25h20.24v-39.72Z"/>
        <path class="cls-2" d="M2307.91,520.19c.04-13.23-.03-26.49,0-39.72h19.46v-20.25h20.24v20.25h39.71v-20.25h20.24c.03,13.23-.04,26.49,0,39.72-26.72.03-53.48-.02-80.19,0v20.25c-6.48.02-12.99-.02-19.46,0Z"/>
        <path class="cls-2" d="M1694.39,1079.35h14.79c-.02,6.48.01,12.99,0,19.47h-14.8"/>
        <path class="cls-2" d="M2188.01,120.68c-6.73-.05-13.51.03-20.24,0v-59.19h80.19c.02,6.48-.03,12.99,0,19.47,6.74.02,13.51-.02,20.24,0v20.25h-20.24c-.02-6.74.03-13.51,0-20.25-19.97-.07-39.98.05-59.95,0,0,13.23.02,26.49,0,39.72,6.73.05,13.51-.03,20.24,0v40.5h-20.24c.01-13.49-.02-27.01,0-40.5Z"/>
        <path class="cls-2" d="M2347.61,21c.03-6.48-.02-12.99,0-19.47h39.71v-20.25h40.49V1.53h-20.24c-.01,6.48.02,12.99,0,19.47,6.74.02,13.51-.02,20.24,0v20.25h-20.24c.01-6.74-.02-13.51,0-20.25-19.97-.07-39.98-.04-59.95,0-.03,6.74.02,13.51,0,20.25h-39.71v-20.25c13.22-.02,26.48.03,39.71,0Z"/>
        <polygon class="cls-2" points="2387.32 41.25 2387.32 61.49 2407.56 61.49 2407.56 80.96 2347.61 80.96 2347.61 61.49 2367.86 61.49 2367.86 41.25 2387.32 41.25"/>
        <path class="cls-2" d="M2327.37,221.14c-6.48-.03-12.99.02-19.46,0v-40.5h-20.24v-19.47h39.71c.05,19.98-.07,39.99,0,59.97,6.74.03,13.51-.02,20.24,0v19.47h-20.24c-.02-6.48.02-12.99,0-19.47Z"/>
        <rect class="cls-2" x="2227.71" y="120.68" width="40.49" height="20.25"/>
        <path class="cls-2" d="M2367.86,200.9c-6.74-.02-13.51.02-20.24,0v-20.25h20.24c.03,6.74-.05,13.51,0,20.25,13.22.04,26.48-.03,39.71,0v20.25h-39.71c-.03-6.74.05-13.51,0-20.25Z"/>
        <path class="cls-2" d="M2387.32,161.18c-13.22-.04-26.48.03-39.71,0v-20.25h39.71c.02,6.74-.03,13.51,0,20.25,6.74.02,13.51-.02,20.24,0v19.47h-20.24c-.02-6.48.03-12.99,0-19.47Z"/>
        <rect class="cls-2" x="2307.91" y="101.21" width="19.46" height="19.47"/>
        <polygon class="cls-2" points="2128.06 180.65 2128.06 221.14 2148.3 221.14 2148.3 240.61 2088.35 240.61 2088.35 180.65 2128.06 180.65"/>
        <rect class="cls-2" x="1748.89" y="919.7" width="20.24" height="19.47"/>
        <path class="cls-2" d="M1908.5,819.24c.03-6.48-.02-12.99,0-19.47h20.24v19.47c-6.74.02-13.51-.02-20.24,0-.03,6.74.02,13.51,0,20.25h-39.71v-20.25c13.22-.03,26.48.04,39.71,0Z"/>
        <polygon class="cls-2" points="2407.56 1079.35 2407.56 1119.07 2367.86 1119.07 2367.86 1098.82 2387.32 1098.82 2387.32 1079.35 2407.56 1079.35"/>
      </g>
      <g>
        <path class="cls-2" d="M1694.39,180.65h-16.35v59.97h-19.46v39.72h-20.24v20.25h-20.24v20.25h-39.71v19.47h-20.24v20.25h-39.71v20.25h-119.9v-20.25h-39.71v-20.25h-59.95v-19.47h-19.46v-20.25h-20.24v-20.25h-20.24v40.5h20.24v59.97h20.24v39.72h-40.49v19.47h-19.46v-19.47h-40.49v19.47h20.24v20.25h20.24v20.25h19.46v19.47h20.24v59.97h20.24v-39.72c13.22-.03,26.48.05,39.71,0-.02,6.74.02,13.51,0,20.25h-20.24v19.47h20.24v80.21h59.95v19.47h-20.24v59.97h-20.24v40.5c6.74.03,13.51-.05,20.24,0-.04,13.23.03,26.49,0,39.72h20.24v19.47h-20.24v80.21h39.71v20.25h119.9v-20.25h39.71v-20.25h20.24v-19.47h20.24v-20.25h19.46v-39.72h-79.41v19.47h-20.24v-79.43h20.24v-20.25h-39.71v20.25h-20.24v20.25h-39.71v19.47h-59.95v-19.47c-6.74-.03-13.51.05-20.24,0,.02-6.74-.02-13.51,0-20.25h39.71v-20.25h20.24v-19.47h20.24v-20.25h19.46v-79.43h20.24v-20.25h-119.9v-20.25h80.19v-39.72h-20.24c-.02-6.74.02-13.51,0-20.25,19.97-.02,39.98.01,59.95,0v-19.47h20.24c-.03,13.23.04,26.49,0,39.72-6.74.02-13.51-.02-20.24,0v20.25h20.24c.02-6.74-.02-13.51,0-20.25,13.22-.04,26.48.03,39.71,0v-20.25h19.46v-19.47h-19.46v-20.25h59.95v-20.25h-40.49v-19.47h-19.46v-20.25h39.71v20.25h39.71v39.72h20.24v20.25h56.06M1338.59-110.61v12.46h-39.71v19.47h-39.71v20.25h-39.71v19.47h-40.49v20.25h-19.46v159.65h19.46v39.72h20.24v20.25h39.71v59.97c13.48-.04,27,.05,40.49,0-.02-6.74.02-13.51,0-20.25-6.74-.03-13.51.02-20.24,0v-19.47h20.24c.02,6.48-.02,12.99,0,19.47,6.48.03,12.99-.02,19.46,0v20.25c-6.48.02-12.99-.02-19.46,0,.02,6.48-.02,12.99,0,19.47h19.46v20.25h39.71v20.25h179.85v-20.25h20.24v-20.25h39.71v-19.47h20.24v-20.25h19.46v-19.47h20.24v-20.25h20.24v-39.72h19.46v-40.5h16.35M1119.03-110.61v31.93h-19.46v20.25h19.46V-18.72h-19.46v59.97h19.46v20.25h20.24V-58.44h20.24v-39.72h19.46v-12.46M705.61-110.61,705.61-58.44h14.79v-20.25h-14.79M705.61,80.96h14.79v-19.47h-14.79M705.61,600.41h14.79v-20.25h19.46v-20.25h20.24v-19.47h39.71v-20.25h59.95v-20.25h-39.71v-19.47h-59.95v-20.25h39.71v-20.25h39.71v-19.47h40.49v-20.25h39.71v-19.47h20.24v-100.46h19.46v20.25h20.24v39.72h20.24v20.25h19.46v20.25h-19.46v19.47h-40.49v20.25h-19.46v19.47h-20.24v20.25h-39.71v39.72h59.95v20.25h19.46v20.25h20.24v19.47h20.24v40.5h19.46v19.47h39.71v-19.47h20.24v-20.25h20.24v-20.25h39.71v-19.47h20.24v-20.25h19.46v-59.97h-19.46v-20.25h-20.24v-19.47h-39.71v19.47h-20.24v20.25h-20.24v-20.25h-19.46v-19.47h-20.24v-20.25h39.71v-19.47h59.95v-20.25h59.95v-20.25h20.24v-19.47h20.24v-40.5h-20.24v-39.72h-20.24v-39.72h-19.46v-39.72h-20.24v-80.21h-39.71v39.72h-20.24v20.25h-20.24v20.25h-39.71v19.47h-19.46v20.25h-20.24v39.72h-59.95v-19.47h-20.24v19.47h-59.95v39.72h-19.46v-59.19h-20.24v-20.25h-39.71v-20.25h-20.24v-19.47h-19.46v-59.97h-14.79M705.61,799.77h14.79c.03,6.48-.02,12.99,0,19.47h39.71v20.25h99.66v39.72h20.24v20.25h-20.24v59.97h20.24v19.47h19.46v-19.47h20.24v-39.72h20.24v-59.97h19.46v-20.25h40.49v20.25h19.46v19.47h59.95v-19.47h20.24v-20.25h79.41v-20.25h20.24v-39.72h-20.24v-39.72h-39.71v-20.25h-39.71c-.01-6.48.02-12.99,0-19.47,6.48-.02,12.99.01,19.46,0v-20.25h-19.46c.01,6.74-.02,13.51,0,20.25-6.74.02-13.51-.01-20.24,0v-20.25h-20.24v39.72h-19.46v20.25h-20.24v39.72h-59.95v-19.47h20.24v-80.21h20.24v-39.72h-20.24v-59.97h-20.24v-20.25h-19.46v-19.47h-20.24v-20.25h-39.71v20.25h19.46v19.47h20.24v20.25h20.24v20.25h19.46v79.43h-59.95v20.25h-19.46v19.47c-6.74.03-13.51-.05-20.24,0-.02,6.74.02,13.51,0,20.25h-20.24v-20.25c6.74-.03,13.51.05,20.24,0,.04-13.23-.03-26.49,0-39.72h-20.24v20.25h-19.46v39.72h-20.24v20.25h20.24v19.47h-20.24v20.25h-79.41c-.03-6.74.02-13.51,0-20.25h-14.8M705.61,1038.86h74.74v-19.47h39.71v-40.5h19.46v-39.72h-19.46v-39.72h-20.24v-20.25h-19.46v-19.47h-74.74M705.61,1179.04h14.79v19.47h39.71v20.25h39.71v20.25h59.95v-40.5h20.24v-39.72h19.46v-79.43h-19.46v-20.25h-20.24v-20.25h-39.71v20.25h-20.24v39.72h-19.46v-19.47h-59.95c.02-6.74-.02-13.51,0-20.25h-14.8M939.96,1370.61v-12.46h19.46v-39.72h20.24v-39.72h-20.24v-39.72h-19.46v-20.25h-40.49v20.25h-19.46v19.47h-20.24v20.25h-39.71v-20.25h-80.19v20.25h-19.46v59.97h-14.79M1298.88,1370.61v-12.46h20.24v-19.47h-39.71v19.47h-20.24v12.46M1618.09,1370.61v-31.93h-19.46v-20.25h-20.24v20.25h-59.95v-20.25h20.24v-39.72h19.46v-20.25h-39.71v20.25h-19.46v19.47h-59.95v20.25h-20.24c0-6.74,0-13.51,0-20.25h-20.24v20.25c0,1.01,18.42,0,20.24,0v20.25h-39.71v31.93M820.06-18.72h-59.95V1.53h-20.24v19.47h20.24v20.25h20.24v20.25h19.46v19.47h20.24v-39.72h39.71V1.53h-39.71v-20.25ZM880.01,80.96c33.21-.11,66.45.08,99.66,0v-19.47h20.24v-20.25h19.46V1.53h-39.71v-20.25h-20.24V1.53h-39.71v19.47h-20.24v40.5h-19.46c-.02,6.48.02,12.99,0,19.47-6.74.02-13.51-.02-20.24,0v39.72h20.24c.03-13.23-.05-26.49,0-39.72ZM1199.22,559.91h-39.71v20.25h-20.24v59.97h20.24v-39.72h19.46v-20.25h20.24v-20.25ZM799.81,640.12c-.03-13.23.02-26.49,0-39.72h-19.46l1.55,39.72c5.96.01,11.95-.03,17.91,0,.03,13.23-.02,26.49,0,39.72h20.24v-39.72c-6.74-.02-13.51.03-20.24,0ZM1259.17,600.41h-20.24v19.47h20.24v-19.47ZM1558.14,619.88h-19.46v20.25h19.46v-20.25ZM880.01,640.12h-20.24v19.47h20.24v-19.47ZM1238.93,640.12h-19.46v39.72h-20.24v39.72h39.71v-19.47h20.24v-20.25h20.24v-20.25h-40.49v-19.47ZM1178.98,659.59h-19.46v20.25h19.46v-20.25ZM1279.41,760.06h-40.49v19.47h-19.46v39.72h19.46v-19.47h20.24v-20.25h20.24v-19.47ZM1319.12,819.24h-20.24v20.25h-19.46v20.25h-20.24v19.47h39.71v-19.47h20.24v-40.5ZM1199.22,879.21h-80.19v40.5h-19.46v19.47h-20.24v20.25h20.24v19.47h19.46v40.5h20.24v39.72h20.24v20.25h19.46v19.47h20.24v-19.47h39.71v-20.25h20.24v-20.25h39.71v-19.47h20.24v-40.5h19.46v-19.47h-19.46v-39.72h-39.71v-20.25h-40.49v39.72h-19.46v-19.47h-20.24v-40.5ZM1039.61,959.42h-39.71v19.47h-20.24v20.25h-20.24v59.97h20.24v-20.25h20.24v-39.72h19.46v-20.25h20.24v-19.47ZM1478.73,1098.82c.03-6.48-.02-12.99,0-19.47h20.24v-20.25h79.41v-20.25h39.71v-39.72h-19.46v-20.25h-40.49v-19.47h-179.07v19.47h-20.24v40.5h20.24v39.72h-20.24v39.72h-39.71v20.25h19.46v19.47h20.24v20.25h-20.24v20.25h59.95v19.47h-19.46v59.97h-20.24v20.25h59.95v-20.25h39.71v-19.47h20.24v-20.25h20.24v-20.25h-20.24v-39.72h20.24v-20.25h39.71v-19.47h-20.24v-20.25h-39.71c-.03,6.74.02,13.51,0,20.25h-39.71v-20.25h39.71ZM919.71,999.14h-39.71v20.25h19.46v19.47h20.24v-39.72ZM1039.61,1019.39h-20.24v19.47h20.24v-19.47ZM1079.32,1079.35h-39.71v19.47h-20.24v20.25h-19.46v39.72h-20.24v20.25h59.95v-40.5h39.71v-19.47h20.24v-20.25h-20.24v-19.47ZM979.66,1119.07h-20.24v19.47h20.24v-19.47ZM1259.17,1119.07h-20.24v19.47h-19.46v40.5h19.46v-20.25h20.24v-39.72ZM1598.63,1119.07h-20.24v39.72h-20.24v39.72h20.24v-19.47h20.24v-59.97ZM1199.22,1158.79h-20.24v20.25h20.24v-20.25ZM1039.61,1198.51h-20.24v40.5h20.24v-40.5ZM1139.27,1218.75c-6.74-.05-13.51.03-20.24,0v-20.25h-19.46v40.5h19.46v19.47h-19.46v20.25h-20.24c-.02-6.74.02-13.51,0-20.25h-20.24v20.25h20.24c.04,13.23-.03,26.49,0,39.72h20.24v-20.25h59.95v-19.47h19.46v-20.25h20.24v-59.97h-59.95v20.25c6.74.05,13.51-.03,20.24,0v20.25h-20.24c0-6.74,0-13.51,0-20.25ZM1298.88,1198.51h-59.95v20.25h59.95v-20.25ZM1259.17,1258.47h-39.71v39.72h-20.24v20.25h39.71v-20.25h20.24v-39.72Z"/>
        <path class="cls-2" d="M1319.12,520.19c.04-13.23-.03-26.49,0-39.72h19.46v-20.25h20.24v20.25h39.71v-20.25h20.24c.03,13.23-.04,26.49,0,39.72-26.72.03-53.48-.02-80.19,0v20.25c-6.48.02-12.99-.02-19.46,0Z"/>
        <path class="cls-2" d="M705.61,1079.35h14.79c-.02,6.48.01,12.99,0,19.47h-14.8"/>
        <polyline class="cls-2" points="1694.4 1.53 1689.72 1.54 1689.66 5.36 1684.99 5.09 1684.24 1.56 1678.04 1.53 1678.04 -58.44 1658.58 -58.44 1658.58 -98.15 1638.34 -98.15 1638.34 -110.61"/>
        <path class="cls-2" d="M1598.63,61.49c-.02-6.74.01-13.51,0-20.25h19.46v20.25c-6.48.02-12.99-.02-19.46,0,.02,6.48-.01,12.99,0,19.47h19.46v39.72h20.24v40.5h-39.71v-40.5h-20.24v-19.47h-20.24v39.72h20.24v39.72h-20.24v-19.47c-6.48-.02-12.99.03-19.46,0-.02,6.48.01,12.99,0,19.47-13.22-.04-26.49.04-39.71,0-.02,6.74.02,13.51,0,20.25h-40.49c-.03-13.23.04-26.49,0-39.72-6.48-.03-12.99.02-19.46,0v-40.5h19.46c.03,13.49-.04,27.01,0,40.5,6.74.03,13.51-.02,20.24,0v19.47c6.74.02,13.51-.02,20.24,0,.04-13.23-.03-26.49,0-39.72h19.46v20.25c6.74.02,13.51-.03,20.24,0,.05-13.49-.03-27.01,0-40.5h-20.24c-.02-6.48.03-12.99,0-19.47-6.48.02-12.99-.02-19.46,0-.03,6.48.02,12.99,0,19.47h-20.24v-19.47c6.74-.02,13.51.02,20.24,0,.03-6.74-.02-13.51,0-20.25h19.46c.02,6.74-.03,13.51,0,20.25,6.74-.02,13.51.02,20.24,0v-20.25h19.46v-19.47c13.48-.04,27,.05,40.49,0Z"/>
        <path class="cls-2" d="M1558.14-58.44c.02-6.74-.02-13.51,0-20.25h20.24v-19.47h39.71v19.47h-19.46v20.25h19.46V-18.72h20.24V21h-39.71V-18.72h-20.24v-39.72c-6.74-.02-13.51.02-20.24,0-.07,19.97-.07,39.99,0,59.97,6.74.02,13.51-.02,20.24,0v19.47h-20.24c-.02-6.48.02-12.99,0-19.47-6.48-.02-12.99.02-19.46,0-.02,13.23.01,26.49,0,39.72h-39.71v20.25h-20.24V21h20.24V1.53h-20.24v-40.5h20.24v20.25h19.46V1.53c6.74.02,13.51-.02,20.24,0,.02-13.49-.01-27.01,0-40.5h-20.24v-19.47c13.22.03,26.48-.04,39.71,0Z"/>
        <path class="cls-2" d="M1199.22,120.68c-6.73-.05-13.51.03-20.24,0v-59.19h80.19c.02,6.48-.03,12.99,0,19.47,6.74.02,13.51-.02,20.24,0v20.25h-20.24c-.02-6.74.03-13.51,0-20.25-19.97-.07-39.98.05-59.95,0,0,13.23.02,26.49,0,39.72,6.73.05,13.51-.03,20.24,0v40.5h-20.24c.01-13.49-.02-27.01,0-40.5Z"/>
        <path class="cls-2" d="M1358.83,21c.03-6.48-.02-12.99,0-19.47h39.71v-20.25h40.49V1.53h-20.24c-.01,6.48.02,12.99,0,19.47,6.74.02,13.51-.02,20.24,0v20.25h-20.24c.01-6.74-.02-13.51,0-20.25-19.97-.07-39.98-.04-59.95,0-.03,6.74.02,13.51,0,20.25h-39.71v-20.25c13.22-.02,26.48.03,39.71,0Z"/>
        <polygon class="cls-2" points="1398.54 41.25 1398.54 61.49 1418.78 61.49 1418.78 80.96 1358.83 80.96 1358.83 61.49 1379.07 61.49 1379.07 41.25 1398.54 41.25"/>
        <path class="cls-2" d="M1338.59,221.14c-6.48-.03-12.99.02-19.46,0v-40.5h-20.24v-19.47h39.71c.05,19.98-.07,39.99,0,59.97,6.74.03,13.51-.02,20.24,0v19.47h-20.24c-.02-6.48.02-12.99,0-19.47Z"/>
        <rect class="cls-2" x="1238.93" y="120.68" width="40.49" height="20.25"/>
        <path class="cls-2" d="M1379.07,200.9c-6.74-.02-13.51.02-20.24,0v-20.25h20.24c.03,6.74-.05,13.51,0,20.25,13.22.04,26.48-.03,39.71,0v20.25h-39.71c-.03-6.74.05-13.51,0-20.25Z"/>
        <path class="cls-2" d="M1398.54,161.18c-13.22-.04-26.48.03-39.71,0v-20.25h39.71c.02,6.74-.03,13.51,0,20.25,6.74.02,13.51-.02,20.24,0v19.47h-20.24c-.02-6.48.03-12.99,0-19.47Z"/>
        <rect class="cls-2" x="1439.02" y="61.49" width="19.46" height="19.47"/>
        <rect class="cls-2" x="1319.12" y="101.21" width="19.46" height="19.47"/>
        <path class="cls-2" d="M1683.31,7.17c2.52,2.99-1.85,6.88-4.54,4.93-.9-.65-1.08-4.54-.64-5.04.51-.57,4.36-.87,5.18.11Z"/>
        <path class="cls-2" d="M1689.68,80.93l-5.42.04.95-5.29,4.12-.21c1.43,1.48.36,3.67.34,5.46Z"/>
        <polygon class="cls-2" points="1683.41 69.36 1683.5 73.96 1678.04 73.96 1678.05 68.5 1683.41 69.36"/>
        <path class="cls-2" d="M1689.6,67.61c-.5.31-3.95.32-4.44.01-3.14-4.94,4.96-7.23,5.29-2.65.03.47-.6,2.48-.85,2.63Z"/>
        <path class="cls-2" d="M1689.6,17.77c-.5.31-3.95.32-4.44.01-3.19-4.98,5.01-6.96,5.29-2.65.03.48-.6,2.47-.85,2.63Z"/>
        <polygon class="cls-2" points="1139.27 180.65 1139.27 221.14 1159.51 221.14 1159.51 240.61 1099.56 240.61 1099.56 180.65 1139.27 180.65"/>
        <rect class="cls-2" x="760.11" y="919.7" width="20.24" height="19.47"/>
        <path class="cls-2" d="M919.71,819.24c.03-6.48-.02-12.99,0-19.47h20.24v19.47c-6.74.02-13.51-.02-20.24,0-.03,6.74.02,13.51,0,20.25h-39.71v-20.25c13.22-.03,26.48.04,39.71,0Z"/>
        <polygon class="cls-2" points="1418.78 1079.35 1418.78 1119.07 1379.07 1119.07 1379.07 1098.82 1398.54 1098.82 1398.54 1079.35 1418.78 1079.35"/>
      </g>
      <g>
        <path class="cls-2" d="M705.6,180.65h-16.35v59.97h-19.46v39.72h-20.24v20.25h-20.24v20.25h-39.71v19.47h-20.24v20.25h-39.71v20.25h-119.9v-20.25h-39.71v-20.25h-59.95v-19.47h-19.46v-20.25h-20.24v-20.25h-20.24v40.5h20.24v59.97h20.24v39.72h-40.49v19.47h-19.46v-19.47h-40.49v19.47h20.24v20.25h20.24v20.25h19.46v19.47h20.24v59.97h20.24v-39.72c13.22-.03,26.48.05,39.71,0-.02,6.74.02,13.51,0,20.25h-20.24v19.47h20.24v80.21h59.95v19.47h-20.24v59.97h-20.24v40.5c6.74.03,13.51-.05,20.24,0-.04,13.23.03,26.49,0,39.72h20.24v19.47h-20.24v80.21h39.71v20.25h119.9v-20.25h39.71v-20.25h20.24v-19.47h20.24v-20.25h19.46v-39.72h-79.41v19.47h-20.24v-79.43h20.24v-20.25h-39.71v20.25h-20.24v20.25h-39.71v19.47h-59.95v-19.47c-6.74-.03-13.51.05-20.24,0,.02-6.74-.02-13.51,0-20.25h39.71v-20.25h20.24v-19.47h20.24v-20.25h19.46v-79.43h20.24v-20.25h-119.9v-20.25h80.19v-39.72h-20.24c-.02-6.74.02-13.51,0-20.25,19.97-.02,39.98.01,59.95,0v-19.47h20.24c-.03,13.23.04,26.49,0,39.72-6.74.02-13.51-.02-20.24,0v20.25h20.24c.02-6.74-.02-13.51,0-20.25,13.22-.04,26.48.03,39.71,0v-20.25h19.46v-19.47h-19.46v-20.25h59.95v-20.25h-40.49v-19.47h-19.46v-20.25h39.71v20.25h39.71v39.72h20.24v20.25h56.06M349.8-110.61v12.46h-39.71v19.47h-39.71v20.25h-39.71v19.47h-40.49v20.25h-19.46v159.65h19.46v39.72h20.24v20.25h39.71v59.97c13.48-.04,27,.05,40.49,0-.02-6.74.02-13.51,0-20.25-6.74-.03-13.51.02-20.24,0v-19.47h20.24c.02,6.48-.02,12.99,0,19.47,6.48.03,12.99-.02,19.46,0v20.25c-6.48.02-12.99-.02-19.46,0,.02,6.48-.02,12.99,0,19.47h19.46v20.25h39.71v20.25h179.85v-20.25h20.24v-20.25h39.71v-19.47h20.24v-20.25h19.46v-19.47h20.24v-20.25h20.24v-39.72h19.46v-40.5h16.35M130.24-110.61v31.93h-19.46v20.25h19.46V-18.72h-19.46v59.97h19.46v20.25h20.24V-58.44h20.24v-39.72h19.46v-12.46M-283.18-110.61-283.18-58.44h14.79v-20.25h-14.79M-283.18,80.96h14.79v-19.47h-14.79M-283.18,600.41h14.79v-20.25h19.46v-20.25h20.24v-19.47h39.71v-20.25h59.95v-20.25h-39.71v-19.47h-59.95v-20.25h39.71v-20.25h39.71v-19.47h40.49v-20.25h39.71v-19.47h20.24v-100.46h19.46v20.25H-9.12v39.72H11.12v20.25h19.46v20.25H11.12v19.47H-29.37v20.25h-19.46v19.47h-20.24v20.25h-39.71v39.72h59.95v20.25h19.46v20.25H-9.12v19.47H11.12v40.5h19.46v19.47h39.71v-19.47h20.24v-20.25h20.24v-20.25h39.71v-19.47h20.24v-20.25h19.46v-59.97h-19.46v-20.25h-20.24v-19.47h-39.71v19.47h-20.24v20.25h-20.24v-20.25h-19.46v-19.47h-20.24v-20.25h39.71v-19.47h59.95v-20.25h59.95v-20.25h20.24v-19.47h20.24v-40.5h-20.24v-39.72h-20.24v-39.72h-19.46v-39.72h-20.24v-80.21h-39.71v39.72h-20.24v20.25h-20.24v20.25H30.58v19.47H11.12v20.25H-9.12v39.72h-59.95v-19.47h-20.24v19.47h-59.95v39.72h-19.46v-59.19h-20.24v-20.25h-39.71v-20.25h-20.24v-19.47h-19.46v-59.97h-14.79M-283.18,799.77h14.79c.03,6.48-.02,12.99,0,19.47h39.71v20.25h99.66v39.72h20.24v20.25h-20.24v59.97h20.24v19.47h19.46v-19.47h20.24v-39.72h20.24v-59.97h19.46v-20.25H11.12v20.25h19.46v19.47h59.95v-19.47h20.24v-20.25h79.41v-20.25h20.24v-39.72h-20.24v-39.72h-39.71v-20.25h-39.71c-.01-6.48.02-12.99,0-19.47,6.48-.02,12.99.01,19.46,0v-20.25h-19.46c.01,6.74-.02,13.51,0,20.25-6.74.02-13.51-.01-20.24,0v-20.25h-20.24v39.72h-19.46v20.25h-20.24v39.72H-29.37v-19.47H-9.12v-80.21H11.12v-39.72H-9.12v-59.97h-20.24v-20.25h-19.46v-19.47h-20.24v-20.25h-39.71v20.25h19.46v19.47h20.24v20.25h20.24v20.25h19.46v79.43h-59.95v20.25h-19.46v19.47c-6.74.03-13.51-.05-20.24,0-.02,6.74.02,13.51,0,20.25h-20.24v-20.25c6.74-.03,13.51.05,20.24,0,.04-13.23-.03-26.49,0-39.72h-20.24v20.25h-19.46v39.72h-20.24v20.25h20.24v19.47h-20.24v20.25h-79.41c-.03-6.74.02-13.51,0-20.25h-14.8M-283.18,1038.86h74.74v-19.47h39.71v-40.5h19.46v-39.72h-19.46v-39.72h-20.24v-20.25h-19.46v-19.47h-74.74M-283.18,1179.04h14.79v19.47h39.71v20.25h39.71v20.25h59.95v-40.5h20.24v-39.72h19.46v-79.43h-19.46v-20.25h-20.24v-20.25h-39.71v20.25h-20.24v39.72h-19.46v-19.47h-59.95c.02-6.74-.02-13.51,0-20.25h-14.8M-48.83,1370.61v-12.46h19.46v-39.72H-9.12v-39.72h-20.24v-39.72h-19.46v-20.25h-40.49v20.25h-19.46v19.47h-20.24v20.25h-39.71v-20.25h-80.19v20.25h-19.46v59.97h-14.79M310.09,1370.61v-12.46h20.24v-19.47h-39.71v19.47h-20.24v12.46M629.3,1370.61v-31.93h-19.46v-20.25h-20.24v20.25h-59.95v-20.25h20.24v-39.72h19.46v-20.25h-39.71v20.25h-19.46v19.47h-59.95v20.25h-20.24c0-6.74,0-13.51,0-20.25h-20.24v20.25c0,1.01,18.42,0,20.24,0v20.25h-39.71v31.93M-168.73-18.72h-59.95V1.53h-20.24v19.47h20.24v20.25h20.24v20.25h19.46v19.47h20.24v-39.72h39.71V1.53h-39.71v-20.25ZM-108.78,80.96c33.21-.11,66.45.08,99.66,0v-19.47H11.12v-20.25h19.46V1.53H-9.12v-20.25h-20.24V1.53h-39.71v19.47h-20.24v40.5h-19.46c-.02,6.48.02,12.99,0,19.47-6.74.02-13.51-.02-20.24,0v39.72h20.24c.03-13.23-.05-26.49,0-39.72ZM210.43,559.91h-39.71v20.25h-20.24v59.97h20.24v-39.72h19.46v-20.25h20.24v-20.25ZM-188.97,640.12c-.03-13.23.02-26.49,0-39.72h-19.46l1.55,39.72c5.96.01,11.95-.03,17.91,0,.03,13.23-.02,26.49,0,39.72h20.24v-39.72c-6.74-.02-13.51.03-20.24,0ZM270.38,600.41h-20.24v19.47h20.24v-19.47ZM569.35,619.88h-19.46v20.25h19.46v-20.25ZM-108.78,640.12h-20.24v19.47h20.24v-19.47ZM250.14,640.12h-19.46v39.72h-20.24v39.72h39.71v-19.47h20.24v-20.25h20.24v-20.25h-40.49v-19.47ZM190.19,659.59h-19.46v20.25h19.46v-20.25ZM290.63,760.06h-40.49v19.47h-19.46v39.72h19.46v-19.47h20.24v-20.25h20.24v-19.47ZM330.33,819.24h-20.24v20.25h-19.46v20.25h-20.24v19.47h39.71v-19.47h20.24v-40.5ZM210.43,879.21h-80.19v40.5h-19.46v19.47h-20.24v20.25h20.24v19.47h19.46v40.5h20.24v39.72h20.24v20.25h19.46v19.47h20.24v-19.47h39.71v-20.25h20.24v-20.25h39.71v-19.47h20.24v-40.5h19.46v-19.47h-19.46v-39.72h-39.71v-20.25h-40.49v39.72h-19.46v-19.47h-20.24v-40.5ZM50.83,959.42H11.12v19.47H-9.12v20.25h-20.24v59.97H-9.12v-20.25H11.12v-39.72h19.46v-20.25h20.24v-19.47ZM489.94,1098.82c.03-6.48-.02-12.99,0-19.47h20.24v-20.25h79.41v-20.25h39.71v-39.72h-19.46v-20.25h-40.49v-19.47h-179.07v19.47h-20.24v40.5h20.24v39.72h-20.24v39.72h-39.71v20.25h19.46v19.47h20.24v20.25h-20.24v20.25h59.95v19.47h-19.46v59.97h-20.24v20.25h59.95v-20.25h39.71v-19.47h20.24v-20.25h20.24v-20.25h-20.24v-39.72h20.24v-20.25h39.71v-19.47h-20.24v-20.25h-39.71c-.03,6.74.02,13.51,0,20.25h-39.71v-20.25h39.71ZM-69.07,999.14h-39.71v20.25h19.46v19.47h20.24v-39.72ZM50.83,1019.39h-20.24v19.47h20.24v-19.47ZM90.53,1079.35h-39.71v19.47h-20.24v20.25H11.12v39.72H-9.12v20.25h59.95v-40.5h39.71v-19.47h20.24v-20.25h-20.24v-19.47ZM-9.12,1119.07h-20.24v19.47H-9.12v-19.47ZM270.38,1119.07h-20.24v19.47h-19.46v40.5h19.46v-20.25h20.24v-39.72ZM609.84,1119.07h-20.24v39.72h-20.24v39.72h20.24v-19.47h20.24v-59.97ZM210.43,1158.79h-20.24v20.25h20.24v-20.25ZM50.83,1198.51h-20.24v40.5h20.24v-40.5ZM150.48,1218.75c-6.74-.05-13.51.03-20.24,0v-20.25h-19.46v40.5h19.46v19.47h-19.46v20.25h-20.24c-.02-6.74.02-13.51,0-20.25h-20.24v20.25h20.24c.04,13.23-.03,26.49,0,39.72h20.24v-20.25h59.95v-19.47h19.46v-20.25h20.24v-59.97h-59.95v20.25c6.74.05,13.51-.03,20.24,0v20.25h-20.24c0-6.74,0-13.51,0-20.25ZM310.09,1198.51h-59.95v20.25h59.95v-20.25ZM270.38,1258.47h-39.71v39.72h-20.24v20.25h39.71v-20.25h20.24v-39.72Z"/>
        <path class="cls-2" d="M330.33,520.19c.04-13.23-.03-26.49,0-39.72h19.46v-20.25h20.24v20.25h39.71v-20.25h20.24c.03,13.23-.04,26.49,0,39.72-26.72.03-53.48-.02-80.19,0v20.25c-6.48.02-12.99-.02-19.46,0Z"/>
        <polyline class="cls-2" points="705.61 1.53 700.93 1.54 700.87 5.36 696.2 5.09 695.45 1.56 689.25 1.53 689.25 -58.44 669.79 -58.44 669.79 -98.15 649.55 -98.15 649.55 -110.61"/>
        <path class="cls-2" d="M609.84,61.49c-.02-6.74.01-13.51,0-20.25h19.46v20.25c-6.48.02-12.99-.02-19.46,0,.02,6.48-.01,12.99,0,19.47h19.46v39.72h20.24v40.5h-39.71v-40.5h-20.24v-19.47h-20.24v39.72h20.24v39.72h-20.24v-19.47c-6.48-.02-12.99.03-19.46,0-.02,6.48.01,12.99,0,19.47-13.22-.04-26.49.04-39.71,0-.02,6.74.02,13.51,0,20.25h-40.49c-.03-13.23.04-26.49,0-39.72-6.48-.03-12.99.02-19.46,0v-40.5h19.46c.03,13.49-.04,27.01,0,40.5,6.74.03,13.51-.02,20.24,0v19.47c6.74.02,13.51-.02,20.24,0,.04-13.23-.03-26.49,0-39.72h19.46v20.25c6.74.02,13.51-.03,20.24,0,.05-13.49-.03-27.01,0-40.5h-20.24c-.02-6.48.03-12.99,0-19.47-6.48.02-12.99-.02-19.46,0-.03,6.48.02,12.99,0,19.47h-20.24v-19.47c6.74-.02,13.51.02,20.24,0,.03-6.74-.02-13.51,0-20.25h19.46c.02,6.74-.03,13.51,0,20.25,6.74-.02,13.51.02,20.24,0v-20.25h19.46v-19.47c13.48-.04,27,.05,40.49,0Z"/>
        <path class="cls-2" d="M569.35-58.44c.02-6.74-.02-13.51,0-20.25h20.24v-19.47h39.71v19.47h-19.46v20.25h19.46V-18.72h20.24V21h-39.71V-18.72h-20.24v-39.72c-6.74-.02-13.51.02-20.24,0-.07,19.97-.07,39.99,0,59.97,6.74.02,13.51-.02,20.24,0v19.47h-20.24c-.02-6.48.02-12.99,0-19.47-6.48-.02-12.99.02-19.46,0-.02,13.23.01,26.49,0,39.72h-39.71v20.25h-20.24V21h20.24V1.53h-20.24v-40.5h20.24v20.25h19.46V1.53c6.74.02,13.51-.02,20.24,0,.02-13.49-.01-27.01,0-40.5h-20.24v-19.47c13.22.03,26.48-.04,39.71,0Z"/>
        <path class="cls-2" d="M210.43,120.68c-6.73-.05-13.51.03-20.24,0v-59.19h80.19c.02,6.48-.03,12.99,0,19.47,6.74.02,13.51-.02,20.24,0v20.25h-20.24c-.02-6.74.03-13.51,0-20.25-19.97-.07-39.98.05-59.95,0,0,13.23.02,26.49,0,39.72,6.73.05,13.51-.03,20.24,0v40.5h-20.24c.01-13.49-.02-27.01,0-40.5Z"/>
        <path class="cls-2" d="M370.04,21c.03-6.48-.02-12.99,0-19.47h39.71v-20.25h40.49V1.53h-20.24c-.01,6.48.02,12.99,0,19.47,6.74.02,13.51-.02,20.24,0v20.25h-20.24c.01-6.74-.02-13.51,0-20.25-19.97-.07-39.98-.04-59.95,0-.03,6.74.02,13.51,0,20.25h-39.71v-20.25c13.22-.02,26.48.03,39.71,0Z"/>
        <polygon class="cls-2" points="409.75 41.25 409.75 61.49 429.99 61.49 429.99 80.96 370.04 80.96 370.04 61.49 390.28 61.49 390.28 41.25 409.75 41.25"/>
        <path class="cls-2" d="M349.8,221.14c-6.48-.03-12.99.02-19.46,0v-40.5h-20.24v-19.47h39.71c.05,19.98-.07,39.99,0,59.97,6.74.03,13.51-.02,20.24,0v19.47h-20.24c-.02-6.48.02-12.99,0-19.47Z"/>
        <rect class="cls-2" x="250.14" y="120.68" width="40.49" height="20.25"/>
        <path class="cls-2" d="M390.28,200.9c-6.74-.02-13.51.02-20.24,0v-20.25h20.24c.03,6.74-.05,13.51,0,20.25,13.22.04,26.48-.03,39.71,0v20.25h-39.71c-.03-6.74.05-13.51,0-20.25Z"/>
        <path class="cls-2" d="M409.75,161.18c-13.22-.04-26.48.03-39.71,0v-20.25h39.71c.02,6.74-.03,13.51,0,20.25,6.74.02,13.51-.02,20.24,0v19.47h-20.24c-.02-6.48.03-12.99,0-19.47Z"/>
        <rect class="cls-2" x="450.23" y="61.49" width="19.46" height="19.47"/>
        <rect class="cls-2" x="330.33" y="101.21" width="19.46" height="19.47"/>
        <path class="cls-2" d="M694.52,7.17c2.52,2.99-1.85,6.88-4.54,4.93-.9-.65-1.08-4.54-.64-5.04.51-.57,4.36-.87,5.18.11Z"/>
        <path class="cls-2" d="M700.89,80.93l-5.42.04.95-5.29,4.12-.21c1.43,1.48.36,3.67.34,5.46Z"/>
        <polygon class="cls-2" points="694.62 69.36 694.71 73.96 689.25 73.96 689.26 68.5 694.62 69.36"/>
        <path class="cls-2" d="M700.81,67.61c-.5.31-3.95.32-4.44.01-3.14-4.94,4.96-7.23,5.29-2.65.03.47-.6,2.48-.85,2.63Z"/>
        <path class="cls-2" d="M700.81,17.77c-.5.31-3.95.32-4.44.01-3.19-4.98,5.01-6.96,5.29-2.65.03.48-.6,2.47-.85,2.63Z"/>
        <polygon class="cls-2" points="150.48 180.65 150.48 221.14 170.73 221.14 170.73 240.61 110.78 240.61 110.78 180.65 150.48 180.65"/>
        <polygon class="cls-2" points="429.99 1079.35 429.99 1119.07 390.28 1119.07 390.28 1098.82 409.75 1098.82 409.75 1079.35 429.99 1079.35"/>
      </g>
    </g>
  </g>
  <g class="cls-3">
    <g>
      <path class="cls-2" d="M3222.52,186.29h-10.13s0,10.13,0,10.13h-9.35s0,39.72,0,39.72h-10.13s0,9.35,0,9.35l10.14.44v9.68s-10.14,0-10.14,0v20.25h-29.59c-.03,3.11.04,6.24,0,9.35-3.37.04-6.76-.03-10.13,0,0,3.37,0,6.76,0,10.13-3.36.04-6.76-.03-10.13,0v10.13s-9.34,0-9.34,0c-.02,3.11.04,6.24,0,9.35,3.1.03,6.24-.02,9.34,0v20.25h-9.35c.07-6.73-.08-13.51,0-20.25-3.37-.03-6.76.03-10.13,0v10.13s-10.12,0-10.12,0v10.13s-10.12,0-10.12,0v9.35s-19.46,0-19.46,0v10.13h-19.47v20.25h-39.71v9.35s-10.13,0-10.13,0v10.13s-29.59,0-29.59,0v-19.47h-29.59l-.45,9.36h-9.68s0-9.36,0-9.36h-29.59v-10.13h-19.47v-10.13h-30.37v-10.13s-9.35,0-9.35,0v-9.35s-20.24,0-20.24,0v-10.13h-19.47v-10.13s-10.13,0-10.13,0v-9.35s-19.46,0-19.46,0v-10.13s-10.13,0-10.13,0v-10.13s-19.46,0-19.46,0v10.13s9.34,0,9.34,0v19.47h10.12v29.6h10.12v20.25h9.34v29.6h10.13c.02,9.85-.04,19.74,0,29.6,3.36.04,6.76-.03,10.12,0v29.6h-10.13c-.02-9.85.04-19.74,0-29.6-6.48-.07-12.99.05-19.47,0v10.13s-9.67,0-9.67,0l-.45-10.14h-19.47v10.13h-39.71v19.47h19.47v10.13s10.13,0,10.13,0v10.13s10.12,0,10.12,0v19.47h19.47v10.13c3.36-.03,6.76.03,10.12,0-.03-3.37.03-6.76,0-10.13h9.35v10.13c-3.11.02-6.24-.04-9.35,0,.03,3.11-.02,6.24,0,9.35h9.35s0,10.12,0,10.12h49.83v-10.13s10.13,0,10.13,0v-8.9s-10.13-.45-10.13-.45v-20.25h19.47v-9.35s10.13,0,10.13,0v-10.13s20.24,0,20.24,0v10.13s-10.13,0-10.13,0v9.35h39.72v-19.47h9.35s0,10.13,0,10.13h20.25v9.35h-20.25v20.25h-69.3v19.47h-9.34v20.25h-21.02v9.35c-6.21-.06-12.47.06-18.69,0-.05-3.11.04-6.24,0-9.35h-10.13s0,9.35,0,9.35c3.37.02,6.76-.04,10.13,0,.06,3.36-.04,6.76,0,10.13h19.47v10.13c3.36,0,6.76-.02,10.12,0,.02-3.36-.65-18.45.76-19.88,2.89-2.93,14.45.8,18.71-.37v29.6h-9.35s0-9.35,0-9.35c-3.37,0-6.76.02-10.13,0-.07,9.85.05,19.75,0,29.6h10.13s0,19.47,0,19.47h-10.12v29.6h19.47v-9.35h39.71v9.35s-9.35,0-9.35,0v10.13s-20.24,0-20.24,0v29.6h20.25v10.13s-10.13,0-10.13,0v10.13s-10.12,0-10.12,0v59.19h20.25v69.32h-10.12v19.47l-10.14.45v9.68s10.14,0,10.14,0v19.47h10.13s0,10.13,0,10.13h19.47v10.13h29.59v9.35h59.18v-9.35h49.83v-10.13h19.47v-10.13s10.13,0,10.13,0v-9.35s19.46,0,19.46,0v-10.13s10.13,0,10.13,0v-10.13s10.12,0,10.12,0v-9.35s10.12,0,10.12,0v-10.13s9.34,0,9.34,0v-10.13s10.12,0,10.12,0v-19.47h-19.47v-10.13h-30.37l-.45-10.14h-8.9s0,10.14,0,10.14h-20.25v10.13h-29.59v-69.32h10.12v-29.6h-10.13s0,9.35,0,9.35h-19.47v20.25h-10.13s0,9.35,0,9.35h-10.13s0,10.12,0,10.12h-19.47v10.13h-29.59v10.13s-10.13,0-10.13,0v9.35s-10.12,0-10.12,0v-19.47h-9.34v29.6h-10.13s0-10.13,0-10.13h-10.13s0-29.59,0-29.59h-9.35s0-10.13,0-10.13h-10.13s0-9.34,0-9.34h29.59v-10.13h19.47v-10.13s10.13,0,10.13,0v-9.35s10.12,0,10.12,0v-10.13s10.12,0,10.12,0v-10.13s9.34,0,9.34,0v-9.35s10.12,0,10.12,0v-20.25h-10.12v-39.72h10.13s0-9.35,0-9.35h10.13s0-30.37,0-30.37h-39.71l-.45,10.14h-9.68s0-10.14,0-10.14h-10.13s0-19.47,0-19.47h30.37v-10.13s9.35,0,9.35,0v-9.35h-9.35s0-10.13,0-10.13h-10.13s0-10.13,0-10.13h-10.13s0-19.47,0-19.47h59.18v-10.13s10.13,0,10.13,0v-10.13s10.12,0,10.12,0v-19.47h9.34v29.6h-9.34v19.47h-10.13c-.05,6.73.08,13.51,0,20.25-3.37.02-6.76-.01-10.13,0v10.13h10.13c.02-3.37-.04-6.76,0-10.13,3.37-.02,6.76.01,10.13,0v-10.13c6.47-.01,12.98.03,19.46,0,0,3.37,0,6.76,0,10.13h9.68c.81-.11.43-8.61.45-10.13,3.36-.04,6.76.03,10.13,0-.03-3.37.03-6.76,0-10.13,3.11-.04,6.24.03,9.35,0v-9.35s10.12,0,10.12,0v-20.25h-29.59v-9.35s10.13,0,10.13,0v-10.13s19.46,0,19.46,0v10.13s10.13,0,10.13,0v-10.13s9.34,0,9.34,0v10.13s10.12,0,10.12,0v9.35s10.12,0,10.12,0v-19.47h-10.12v-19.47h-10.13s0-10.13,0-10.13h-9.35s0-10.12,0-10.12h-20.25v-10.13s-9.35,0-9.35,0v-9.35h19.47v9.35h19.47v10.13h20.25v10.13h19.47v19.47h10.13s0,10.13,0,10.13h10.13s0,19.47,0,19.47h19.47v10.13h20.25v-10.13h19.47M2876-108.91v8.57h-19.47v9.35h-20.25v10.13h-19.47v10.13h-20.25v10.13h-19.47v9.35h-19.47v10.13h-30.37v10.13h-19.47v9.35s-10.13,0-10.13,0v10.13s-9.34,0-9.34,0V28.17h19.47c.02-3.37-.02-6.76,0-10.13h19.47v10.13c-6.48,0-12.99,0-19.47,0-.02,3.37.02,6.76,0,10.13h-19.47v9.35s-10.12,0-10.12,0v59.97h10.12v29.6h9.34v29.6h10.12v19.47h10.13s0,10.13,0,10.13h9.35s0,19.47,0,19.47c3.36.02,6.76-.02,10.12,0,.04,3.37-.03,6.76,0,10.13h10.13v-10.13c-3.37-.01-6.76.03-10.13,0-.07-6.48.05-13,0-19.48h10.13s0,10.13,0,10.13h10.13s0,19.47,0,19.47h9.34v29.6h10.13s0,10.13,0,10.13h10.13l.44-10.14h8.9s0,10.14,0,10.14c6.74-.06,13.51.07,20.25,0,0-3.37,0-6.76,0-10.13h-10.13s0-10.13,0-10.13h-10.13s0-9.34,0-9.34h-19.47c-.02-6.74.03-13.51,0-20.25-3.36-.02-6.76.02-10.12,0v-19.47h10.13c.01,6.48-.03,12.99,0,19.47,3.37.02,6.76-.01,10.13,0v10.13s19.46,0,19.46,0v10.13s10.13,0,10.13,0v9.35s10.12,0,10.12,0v20.25c-3.36.03-6.76-.04-10.12,0,0,3.37,0,6.76,0,10.13h-10.13s0,19.47,0,19.47h20.25v10.13h19.47v9.35h29.59l.45,10.14h9.68s0-10.14,0-10.14c3.36-.03,6.76.06,10.13,0,.03-3.11-.02-6.24,0-9.35h9.35s0,9.35,0,9.35c-3.11.03-6.24-.05-9.35,0-.03,3.36.02,6.76,0,10.13h29.59v10.13h39.71v-10.13s9.35,0,9.35,0v-10.13s10.12,0,10.12,0v10.13s39.71,0,39.71,0v-10.13h29.59v-9.35s10.13,0,10.13,0v-10.13s9.34,0,9.34,0v-10.13s20.24,0,20.24,0v-9.35s9.35,0,9.35,0c0-3.37,0-6.76,0-10.13-3.11-.04-6.24.03-9.35,0,0-3.37.02-6.76,0-10.13-3.36-.05-6.76.04-10.13,0v-10.13h10.13c0,3.37-.02,6.76,0,10.13,3.11.05,6.24-.04,9.35,0,0,3.37,0,6.76,0,10.13,6.74.08,13.51-.06,20.25,0v-10.13s10.12,0,10.12,0v-10.13s9.34,0,9.34,0v-9.35s10.12,0,10.12,0v-10.13s10.12,0,10.12,0v-10.13s9.34,0,9.34,0v-19.47h10.13s0-10.13,0-10.13h10.13s0-19.47,0-19.47h10.12v-29.6h9.34V-11.55h-9.34v-19.47h-10.12v-29.6h-10.13s0-10.13,0-10.13h-10.13s0-20.25,0-20.25h-9.35s0-17.91,0-17.91M2233.6,612.33h9.35s0-10.13,0-10.13h9.35s0-20.25,0-20.25h10.13s0-9.35,0-9.35h10.13s0-10.13,0-10.13c6.48,0,12.99.03,19.47,0-.02,3.37.01,6.76,0,10.13h-9.35s0,9.35,0,9.35h-10.13c-.02,3.36.04,6.76,0,10.12-3.37.04-6.76-.03-10.13,0-.05,6.74.09,13.52,0,20.25-3.37.02-6.76-.01-10.13,0-.03,3.11.05,6.24,0,9.35-3.11.05-6.24-.04-9.35,0v10.13s9.35,0,9.35,0c.03-3.37-.06-6.76,0-10.13,3.36-.05,6.76.04,10.13,0,.02-3.11-.04-6.24,0-9.35,3.37-.02,6.76.01,10.13,0,.05-6.74-.08-13.52,0-20.25,6.48-.07,12.99.05,19.47,0v-10.13s10.12,0,10.12,0v-9.35s19.46,0,19.46,0c.02-3.36-.02-6.76,0-10.13,3.37-.04,6.76.03,10.13,0v-10.13h-10.13c-.01,3.37.03,6.76,0,10.13-9.85.11-19.74-.03-29.59,0,.02-3.37-.01-6.76,0-10.13h10.13s0-9.34,0-9.34h29.59v-10.13h29.59v-10.13s-10.13,0-10.13,0v-10.13c6.74.06,13.51-.07,20.25,0,.06,3.37-.04,6.76,0,10.13h10.13v-10.13c-3.37-.02-6.76.04-10.13,0-.05-3.1.04-6.24,0-9.35h-20.25v-10.13s10.13,0,10.13,0v-10.13h-39.72v10.13h-19.47v-19.47h-10.13s0-10.13,0-10.13h20.25v-10.13h19.47v-9.35h19.47v-10.13h20.25v-10.13h29.59v-10.13h19.47v-9.35h20.25v-10.13s10.13,0,10.13,0v-10.13s9.34,0,9.34,0v-9.35s10.12,0,10.12,0v-20.25h10.12v-39.72h-10.13c-.04-6.48.07-12.99,0-19.47-3.37-.02-6.76.01-10.13,0v-10.13h10.13c.02,3.37-.04,6.76,0,10.13,3.37.02,6.76-.01,10.13,0v10.13s19.46,0,19.46,0v9.35s10.12,0,10.12,0v20.25h10.12v19.47h19.47c.08,9.85-.11,19.75,0,29.6-3.37,0-6.76,0-10.12,0v20.25h-19.47v9.35h-20.25v10.13s-9.35,0-9.35,0v10.13s-10.12,0-10.12,0v19.47h-29.59v10.13s-10.13,0-10.13,0v10.13s-19.46,0-19.46,0v19.47h29.59v10.13h19.47v9.35s10.13,0,10.13,0v10.13s10.12,0,10.12,0v10.13s9.34,0,9.34,0v10.13s10.12,0,10.12,0v9.35s10.12,0,10.12,0v10.13s10.12,0,10.12,0v10.13s9.34,0,9.34,0v19.47h10.12v20.25h10.13s0,9.35,0,9.35h9.35s0,10.13,0,10.13h10.13s0-10.13,0-10.13h10.13s0-9.35,0-9.35h10.13s0-10.12,0-10.12h19.47v-10.13s10.13,0,10.13,0v-10.13s9.34,0,9.34,0v-9.35s20.24,0,20.24,0v-10.13s10.13,0,10.13,0v-10.13s9.34,0,9.34,0v-9.35s20.24,0,20.24,0v-10.13s9.34,0,9.34,0v-20.25h10.12v-49.07h-10.12v-19.47h-9.35s0-10.13,0-10.13h-29.59l-.45-10.14h-9.68s0,10.14,0,10.14h-29.59l-.45,10.14h-9.68s0-10.14,0-10.14h-10.13v29.6h-9.35s0-10.13,0-10.13h-10.13s0-19.47,0-19.47h-10.13s0-10.13,0-10.13h-10.13s0-10.13,0-10.13h-9.35c-.04-6.47.07-12.99,0-19.47,16.34.18,32.72-.13,49.06,0v-10.13s39.71,0,39.71,0v-9.35h39.71v-10.13h29.59v-10.13s10.13,0,10.13,0v-10.13s9.34,0,9.34,0v-9.35s10.12,0,10.12,0v-59.19h-10.12v-20.25h-9.34v-29.6h-10.12v-19.47h-10.12v-20.25h-9.34v-19.47h-10.12v-20.25h-10.12v-49.07h-9.34V7.92h9.34V-31.02h10.12v-29.6h10.12v-20.25h9.34v-19.47h10.13s0-8.57,0-8.57M2233.6,780.56c3.11,0,6.24-.01,9.34,0,.05,3.11-.04,6.24,0,9.35,3.11.02,6.24-.04,9.35,0,.05,3.37-.04,6.76,0,10.13h10.13c-.03,3.36.03,6.76,0,10.12-3.37.04-6.76-.03-10.13,0v9.35h10.13c.02-3.11-.04-6.24,0-9.35,6.74-.07,13.51.05,20.25,0v-10.13s-10.13,0-10.13,0v-10.13c-6.73-.05-13.51.09-20.24,0-.05-3.11.04-6.24,0-9.35-3.11,0-6.24.02-9.35,0-.05-3.37.04-6.76,0-10.13h-9.35M2233.6,805.49l4.72-.34c1.22-.85.64-3.72.73-5.12h-5.45M2233.6,839.76h9.34v-34.27l-3.55.73-.34,3.95h-5.45M2233.6,1027.47h9.35s0,10.13,0,10.13h69.3v-10.13h19.47v-9.35s10.13,0,10.13,0v-10.13s9.34,0,9.34,0v-20.25h10.12v-69.32h-10.12v-19.47h-9.35s0-10.13,0-10.13h-10.13s0-9.35,0-9.35h-10.13s0-10.12,0-10.12h-19.47v-10.13h-49.83v10.13s-18.69,0-18.69,0M2233.6,1067.19h9.35s0,10.13,0,10.13h9.35v-20.25h-9.35s0-9.35,0-9.35h-9.35M2233.6,1166.11h9.34v20.25h9.35s0,9.35,0,9.35h20.25v10.13h29.59v10.13h19.47v9.35h20.25v10.13h29.59l.45,10.14h9.68s0-10.14,0-10.14h9.35s0-29.59,0-29.59h10.12v-19.47h10.12v-20.25h9.34v-19.47h10.12v-69.32h-10.13s0-10.13,0-10.13h-9.35s0-10.13,0-10.13h-10.13s0-9.35,0-9.35h-10.13s0-10.12,0-10.12h-19.47v10.13h-20.25v9.35s-9.35,0-9.35,0v10.13s-10.12,0-10.12,0v29.6h-19.47v-10.13s-10.13,0-10.13,0v-9.35s-39.71,0-39.71,0v9.35s-10.13,0-10.13,0v10.13s-9.34,0-9.34,0v-10.13s-9.34,0-9.34,0M2233.6,1205.83l9.36-.45v-9.68s-9.36,0-9.36,0M2470.32,1372.51v-8.57s10.12,0,10.12,0v-19.47h9.34v-20.25h10.12v-59.19h-10.12v-19.47h-9.35s0-10.13,0-10.13h-10.13s0-19.47,0-19.47h-29.59v9.35h-20.25v10.13s-9.35,0-9.35,0v10.13s-10.12,0-10.12,0v9.35s-10.12,0-10.12,0v30.38h-19.47v-10.13s-10.13,0-10.13,0v-10.13s-10.12,0-10.12,0v-10.13s-19.46,0-19.46,0v-9.35h-39.71v9.35s-9.35,0-9.35,0v10.13s-10.12,0-10.12,0v10.13s-10.12,0-10.12,0v10.13s-28.81,0-28.81,0M2707.81,1372.51v-8.57h-19.47v8.57M2816.83,1372.51v-8.57h19.47c.02-6.48-.03-12.99,0-19.47,3.36.03,6.76-.02,10.12,0v-20.25h-10.13c-.02,6.74.03,13.51,0,20.25-3.11-.03-6.24.02-9.35,0v-10.13s-10.12,0-10.12,0v10.13s-10.12,0-10.12,0v10.13s-19.46,0-19.46,0v17.91M3143.09,1372.51v-8.57s10.12,0,10.12,0v-19.47h-10.13s0-10.13,0-10.13h-9.35s0-10.12,0-10.12h-39.71v10.13h-20.25v10.13h-19.47v-39.72h10.12v-29.6h9.34v-29.6h-9.35s0,9.35,0,9.35h-10.13s0,10.12,0,10.12h-20.25v10.13s-9.35,0-9.35,0v10.13s-10.12,0-10.12,0v9.35s-29.59,0-29.59,0v10.13h-19.47l-.45,10.14h-9.68s0-10.14,0-10.14h-10.13s0-19.47,0-19.47h-10.13s0,9.35,0,9.35h-9.35c-.05,6.73.09,13.51,0,20.25-2.88.16-6.74,1.5-10.13.77-.03,2.85.05,5.72,0,8.57-3.37.02-6.76-.01-10.13,0-.02,3.37.04,6.76,0,10.13-3.1.04-6.24-.03-9.34,0v20.25c3.1.02,6.24-.03,9.34,0,.04,3.11-.03,6.24,0,9.35h10.13s0,8.56,0,8.56M2440.73,543.01c-.05-3.37.04-6.76,0-10.13h-10.13s0-10.12,0-10.12h-19.47v-10.13h-20.25v10.13s10.13,0,10.13,0v10.13s19.46,0,19.46,0v10.13c6.73.05,13.51-.08,20.25,0,.05,3.11-.04,6.24,0,9.35,3.36.03,6.76-.06,10.13,0,.05,3.37-.04,6.76,0,10.13,3.11.02,6.24-.04,9.35,0,.07,6.48-.05,13,0,19.48h10.13s0,10.13,0,10.13h10.13s0,20.25,0,20.25h9.34v59.19h-9.35s0,10.13,0,10.13h-9.68s-.44-10.13-.44-10.13h-10.13v19.48h-19.47v-59.19c-3.36-.02-6.76.02-10.12,0-.02-6.48.01-12.99,0-19.48-3.36-.03-6.76.06-10.13,0-.04-3.37.03-6.76,0-10.13h-9.35v10.13c3.11.03,6.24-.05,9.35,0,.07,6.48-.05,13,0,19.48,3.37.01,6.76-.03,10.13,0,.06,16.6-.05,33.25,0,49.85h-10.13s0,19.47,0,19.47h-9.35s0,10.13,0,10.13h-10.13s0,9.35,0,9.35h-10.13s0,10.12,0,10.12h-49.06v10.13s-10.13,0-10.13,0v9.35h19.47v10.13s-9.36.44-9.36.44v9.68s9.36,0,9.36,0v10.13h-19.47v-10.13s-10.12,0-10.12,0v19.47h10.13s0,10.13,0,10.13h10.13s0,10.12,0,10.12h-20.25v-10.13h-29.59v10.13s10.12,0,10.12,0v19.47c-3.36.03-6.76-.04-10.12,0-.02-3.37.02-6.76,0-10.13h-19.47v10.13c6.47-.06,12.99.07,19.47,0,.02,3.37-.02,6.76,0,10.13h39.71v10.13h29.59v-10.13c16.6-.04,33.23.06,49.83,0-.02,3.37.02,6.76,0,10.13h-20.25v9.35s-9.36.44-9.36.44v9.68s9.36,0,9.36,0v10.13s10.12,0,10.12,0v-10.13s10.12,0,10.12,0v19.47h-10.12v20.25h-10.12v39.72h10.13s0,9.35,0,9.35h10.13s0,20.25,0,20.25h19.47l.45-10.14h9.68s0,10.14,0,10.14h10.13v-20.25h-20.25v-9.35s10.12,0,10.12,0v-30.38h10.13s0-9.35,0-9.35h29.59v-20.25h-20.25v-9.35s10.13,0,10.13,0v-10.13s10.12,0,10.12,0v-10.13s9.34,0,9.34,0v-9.35s20.24,0,20.24,0v-10.13s10.13,0,10.13,0v-10.13s9.34,0,9.34,0v29.6h10.13s0,10.13,0,10.13h10.13s0,10.12,0,10.12h19.47v9.35h20.25v-9.35h19.47v-10.13s10.13,0,10.13,0v-10.13s9.34,0,9.34,0v-19.47h69.3v-10.13s10.13,0,10.13,0v-10.13s10.12,0,10.12,0v-19.47l9.36-.45v-9.68s-9.36,0-9.36,0v-19.47h-10.12v-20.25h-10.13s0-9.35,0-9.35h-19.47v-10.13h-19.47v-10.13h-20.25v-9.35h-19.47v-20.25h9.35s0,10.13,0,10.13h20.25v10.13h19.47v-10.13s-9.35,0-9.35,0v-10.13s-10.12,0-10.12,0v-19.47h-20.25v10.13c-12.96-.11-25.97.14-38.93,0-.04-3.37.03-6.76,0-10.13h-10.13v10.13c3.37.02,6.76-.04,10.13,0,.11,9.85-.08,19.75,0,29.6h-10.13s0,19.47,0,19.47h-10.12v19.47h-10.13s0,10.13,0,10.13h-19.47v20.25c-16.6.15-33.24-.2-49.83,0,.08-6.74-.06-13.52,0-20.25h10.13s0-19.47,0-19.47h10.12v-20.25h10.12v-118.39h-10.12v-20.25h-10.13s0-9.35,0-9.35c-3.37.03-6.76-.03-10.13,0-.04,3.11.03,6.24,0,9.35h-9.35s0-9.35,0-9.35c3.11-.02,6.24.04,9.35,0,.08-6.74-.06-13.52,0-20.25-3.11-.03-6.24.05-9.35,0-.03-3.11.02-6.24,0-9.35h-10.13s0,9.35,0,9.35c3.36.03,6.76-.06,10.13,0,.03,3.37-.03,6.76,0,10.13-6.74-.07-13.51.08-20.25,0-.04-3.37.03-6.76,0-10.13-3.11-.03-6.24.05-9.35,0-.05-3.11.04-6.24,0-9.35-3.37-.02-6.76.04-10.13,0ZM2777.12,522.75h-10.13v10.13h10.13v-10.13ZM2796.58,532.88h-9.34v29.6h9.34v-29.6ZM2717.93,562.48h-29.59v29.6h-10.13s0,10.13,0,10.13h-19.47v19.47h9.34v20.25h10.12v-29.6h10.13s0-10.13,0-10.13h9.35s0-10.13,0-10.13h10.13s0-10.13,0-10.13h10.13s0-19.47,0-19.47ZM3024.73,562.48h-10.12v19.47h10.12v-19.47ZM2302.13,602.2c6.48-.07,12.99.05,19.47,0v-10.13s29.59,0,29.59,0v-10.13h-38.93v10.13s-10.13,0-10.13,0c0,3.37.02,6.76,0,10.13-3.37.04-6.76-.03-10.13,0-.02,3.37.04,6.76,0,10.13-3.11.05-6.24-.04-9.35,0v9.35s-10.12,0-10.12,0v29.6h10.12v-19.47h9.35c.04-6.48-.07-12.99,0-19.47,3.36-.05,6.76.04,10.13,0,0-3.37-.02-6.76,0-10.13ZM2312.25,631.8c6.48-.07,12.99.05,19.47,0v-10.13s19.46,0,19.46,0v-19.47h-19.47v10.13h-19.47c-.03,6.48.05,12.99,0,19.47-3.37.04-6.76-.03-10.13,0v10.13s-10.12,0-10.12,0v39.72h10.12v-30.38h10.13c.03-6.48-.05-12.99,0-19.47ZM2787.24,602.2h-20.25v10.13s10.13,0,10.13,0v9.35s10.12,0,10.12,0v-19.47ZM2381.55,621.67c-.05-3.11.04-6.24,0-9.35h-10.13s0,9.35,0,9.35c3.36.03,6.76-.06,10.13,0,.05,3.37-.04,6.76,0,10.13,3.11.02,6.24-.04,9.35,0,.07,6.48-.05,13,0,19.48h10.13s0,20.25,0,20.25h-10.12v19.47h-9.35s0,10.13,0,10.13h-30.37v19.47h30.37v-9.35s9.35,0,9.35,0v-10.13s10.12,0,10.12,0v-19.47h10.12v-49.85c-6.74-.06-13.51.08-20.25,0-.04-3.37.03-6.76,0-10.13-3.11-.03-6.24.05-9.35,0ZM3094.03,612.33h-10.12v19.47h10.12v-19.47ZM3064.44,631.8c-3.36.06-6.76-.04-10.12,0v19.47h10.13c.04-6.48-.07-12.99,0-19.47,3.11-.05,6.24.04,9.35,0v-10.13s-9.35,0-9.35,0c-.02,3.37.04,6.76,0,10.13ZM2331.72,671.52c0-3.37,0-6.76,0-10.13h10.13s0-10.12,0-10.12h19.47v-19.47h-10.13s0,10.13,0,10.13h-19.47v9.35s-10.12,0-10.12,0v20.25c3.36.03,6.76-.04,10.12,0,0,3.37,0,6.76,0,10.13h10.13s0,9.34,0,9.34h29.59c.05-6.48-.07-12.99,0-19.47,3.37-.04,6.76.03,10.13,0v-10.13h-10.13c-.02,3.37.04,6.76,0,10.13-13.21.14-26.51.14-39.71,0ZM2806.71,631.8h-10.13v10.13h10.13v-10.13ZM2727.28,701.12c-.07,6.48.05,12.99,0,19.47h20.25v-9.35h29.59v-10.13s10.13,0,10.13,0v-10.13s9.34,0,9.34,0v-9.35s10.12,0,10.12,0v-20.25h-10.13s0,10.13,0,10.13h-19.47v-29.6h-29.59v9.35s10.12,0,10.12,0v30.38h-10.13s0-10.13,0-10.13h-9.68s-.45,10.13-.45,10.13h-29.59v9.35s10.13,0,10.13,0v10.13c3.1.02,6.23-.04,9.34,0,.04-3.37-.03-6.76,0-10.13h10.13v10.13c-3.37-.03-6.76.03-10.13,0ZM2697.69,661.4h-19.47v10.13s10.13,0,10.13,0v10.13s9.34,0,9.34,0v-20.25ZM2766.99,770.44h-19.47v39.72h10.13s0,9.35,0,9.35h19.47v-29.6h10.13s0,10.13,0,10.13h8.9s.44-10.13.44-10.13h10.13s0-19.47,0-19.47h-10.13s0-10.13,0-10.13h-9.35s0-10.13,0-10.13h-9.68s-.44,10.13-.44,10.13h-10.13s0,10.12,0,10.12ZM2836.29,760.31h-9.34v20.25h9.34v-20.25ZM2865.88,800.04h-19.47v10.13s10.13,0,10.13,0v9.35s9.34,0,9.34,0v-19.47ZM2846.41,819.51h-19.47v10.13s-10.12,0-10.12,0v20.25h-20.25v9.35s-9.35,0-9.35,0v10.13h49.06v-10.13s10.13,0,10.13,0v-9.35s10.12,0,10.12,0v-20.25h-10.13s0-10.13,0-10.13ZM2777.11,839.76c-.02-3.37.02-6.76,0-10.13h-19.47v10.13c6.47.04,12.99-.07,19.47,0,.02,3.37-.01,6.76,0,10.13h10.13v-10.13c-3.37-.02-6.76.04-10.13,0ZM2510.03,869.36h-10.12v19.47h10.12v-19.47ZM2668.1,1037.59c3.36-.03,6.76.02,10.12,0v19.47h10.13s0,10.13,0,10.13h9.35s0,19.47,0,19.47h10.13s0,10.13,0,10.13h19.47v-10.13s10.13,0,10.13,0v-9.35s20.24,0,20.24,0v-10.13s9.35,0,9.35,0v-10.13s20.24,0,20.24,0v-9.35h19.47v-10.13s10.13,0,10.13,0v-10.13s10.12,0,10.12,0v-9.35s9.34,0,9.34,0v-10.13s10.12,0,10.12,0v-20.25h10.12v-49.07h-10.13s0-10.13,0-10.13h-10.13s0-10.12,0-10.12h-19.47v-9.35h-29.59v-10.13h-29.59v10.13s9.34,0,9.34,0v19.47h-9.35s0,10.13,0,10.13h-9.68s-.44-10.13-.44-10.13h-10.13s0-19.47,0-19.47h-10.12v-20.25h-9.35s0-9.35,0-9.35h-49.83v9.35h-19.47v10.13s-10.12,0-10.12,0v19.47h-10.13s0,10.13,0,10.13h-19.47v20.25h19.47v19.47h10.12v29.6h10.13s0,10.13,0,10.13h10.13s0,19.47,0,19.47h9.35c0,3.36,0,6.76,0,10.13-3.11.03-6.24-.02-9.35,0v10.13s9.35,0,9.35,0c0-3.37,0-6.76,0-10.13ZM2470.32,918.43h-10.13s0,10.13,0,10.13h-9.35s0,20.25,0,20.25h9.35s0-10.13,0-10.13h10.13s0-20.25,0-20.25ZM2905.6,918.42h-9.35v10.13h9.35v-10.13ZM2569.21,938.67h-10.13v10.13h10.13v-10.13ZM2925.84,948.8c.03-3.36-.02-6.76,0-10.13h-20.25v10.13c6.73,0,13.51-.03,20.25,0-.03,3.11.02,6.24,0,9.35h-10.13s0,10.13,0,10.13h-10.13s0,10.13,0,10.13h-9.35s0,9.35,0,9.35h-10.13s0,20.25,0,20.25h10.13s0,10.13,0,10.13h8.9s.45-10.13.45-10.13h20.25v19.47h-20.25v20.25h-9.35s0,9.35,0,9.35h-10.13s0,20.25,0,20.25h10.12v19.47h-10.13s0-10.13,0-10.13h-20.25c-.02,3.36.02,6.76,0,10.13-6.48-.07-12.99.05-19.47,0v10.13h19.47c.02-3.36-.02-6.76,0-10.13,3.36.04,6.76-.03,10.12,0v20.25h10.13s0,9.35,0,9.35h-29.59v10.13h19.47v39.72h49.83v10.13s-10.13,0-10.13,0v9.35s-10.12,0-10.12,0v10.13s-9.34,0-9.34,0v19.47h19.47v10.13h-19.47c.02,9.85-.03,19.74,0,29.6-6.74.02-13.51-.01-20.25,0v9.68c.14,1,18.16.42,20.25.45.04,3.37-.03,6.76,0,10.13h9.35v-10.13c-3.11-.02-6.24.04-9.35,0-.04-3.37.01-6.76,0-10.13,19.71-.06,39.47.04,59.18,0v-10.13s19.46,0,19.46,0v-9.35s10.13,0,10.13,0v-10.13s19.46,0,19.46,0v-19.47h10.12v-20.25h-10.13s0-9.35,0-9.35h-9.35s0-20.25,0-20.25h9.35s0-10.13,0-10.13h20.25v-9.35s9.35,0,9.35,0v-10.13s20.24,0,20.24,0v-10.13s10.14-.44,10.14-.44v-8.9s-10.14,0-10.14,0v-10.13s-29.59,0-29.59,0v-10.13s-10.13,0-10.13,0v-10.13s-10.12,0-10.12,0v-9.35h10.13s0-10.12,0-10.12h19.47v-10.13c10.11-.02,20.26.04,30.37,0-.08,6.74.08,13.51,0,20.25-6.74.08-13.51-.06-20.25,0v9.35h20.25c.03-3.11-.04-6.24,0-9.35,3.11-.04,6.24.03,9.35,0v-10.13s10.12,0,10.12,0c-.03-3.37.03-6.76,0-10.13,3.36-.04,6.76.03,10.12,0v-29.6h9.34v29.6h10.13s0-9.35,0-9.35h10.13s0-20.25,0-20.25h10.12v20.25h9.34v-29.6h-9.34v-20.25h-10.13s0-10.13,0-10.13h-10.13s0-9.35,0-9.35h-10.13s0-10.13,0-10.13h-9.35v10.13s-10.12,0-10.12,0v-10.13s-10.12,0-10.12,0v-10.13s-19.46,0-19.46,0v-9.35h-88.77l-.45,9.36h-9.68s0-9.36,0-9.36c-9.85-.02-19.74.04-29.59,0ZM2549.74,948.8h-20.25v9.35s10.13,0,10.13,0v10.13s19.46,0,19.46,0v10.13h20.25v-20.25h-29.59v-9.35ZM2539.62,987.74c-.05-3.1.04-6.24,0-9.35h-39.71v9.35h20.25c.02,6.74-.02,13.51,0,20.25-10.11.13-20.26-.09-30.37,0v10.13s-9.34,0-9.34,0v9.35h19.47c.03,3.36-.04,6.76,0,10.13-3.37.04-6.76-.03-10.13,0v10.13s-9.34,0-9.34,0v9.35h19.47c-.05-6.48.07-12.99,0-19.47,6.74-.07,13.51.05,20.25,0-.03-9.86.03-19.75,0-29.6,3.1-.04,6.24.03,9.34,0v-20.25c3.36-.03,6.76.04,10.12,0,.06,3.36-.04,6.76,0,10.13h19.47v-10.13c-6.47.06-12.99-.07-19.47,0ZM2411.14,997.87v20.25h9.34v19.47h10.13s0-10.13,0-10.13h10.13s0-9.35,0-9.35h10.13s0-10.13,0-10.13h-10.13s0-10.13,0-10.13h-10.13s0-10.13,0-10.13h-10.13v10.13s-9.34,0-9.34,0ZM2579.33,1018.12h-20.25v9.35h-19.47v20.25h19.47v-10.13s10.13,0,10.13,0v-10.13s10.12,0,10.12,0v-9.35ZM3133.75,1057.06h-10.13v10.13h10.13v-10.13ZM2608.92,1067.19h-19.47v10.13s-10.13,0-10.13,0v9.35s-29.59,0-29.59,0v20.25h-10.13s0,10.13,0,10.13h-10.13s0,19.47,0,19.47h10.13s0,10.13,0,10.13h-19.47v29.6h9.35s0-10.13,0-10.13h20.25v20.25h9.35s0-10.13,0-10.13h10.13s0-29.59,0-29.59h10.13s0-10.13,0-10.13h19.47v-10.13s10.13,0,10.13,0v-9.35s10.12,0,10.12,0v-20.25h-10.12v-29.6ZM2638.51,1096.78h-10.13v10.13h10.13v-10.13ZM2510.03,1106.91h-10.12v19.47h10.12v-19.47ZM3113.5,1106.91h-19.47v10.13h19.47v-10.13ZM2658.76,1126.38h-10.13v10.13h10.13v-10.13ZM2787.24,1126.38h-29.59v20.25h-10.12v29.6h10.13s0,10.13,0,10.13h9.35v-20.25h10.12v-19.47h10.12v-20.25ZM2836.29,1126.38h-19.47v10.13h19.47v-10.13ZM3123.62,1126.38h-20.25v10.13s10.12,0,10.12,0v19.47h-10.13s0,10.13,0,10.13h-19.47v10.13s-10.12,0-10.12,0v19.47h10.13s0-9.35,0-9.35h19.47v-10.13s10.13,0,10.13,0v-10.13s10.12,0,10.12,0v-39.72ZM2668.1,1146.63v19.47h20.25v-10.13s-10.13,0-10.13,0v-9.35s-10.12,0-10.12,0ZM3094.03,1146.63h-20.25v9.35h20.25v-9.35ZM2727.28,1155.98h-29.59v10.13s10.13,0,10.13,0v10.13s10.12,0,10.12,0v10.13s9.34,0,9.34,0v-30.38ZM2658.76,1285.27c.03,3.11-.02,6.24,0,9.35h29.59v-9.35s9.35,0,9.35,0v-10.13s10.12,0,10.12,0v-20.25h10.12v-19.47h9.34v-39.72h-19.47v20.25h-10.12v-29.6h-29.59v9.35h20.25v10.13s-10.12,0-10.12,0v29.6h-10.12v-19.47h-9.35s0,9.35,0,9.35h-9.68s-.44-9.35-.44-9.35h-10.13s0-20.25,0-20.25h-10.13s0,10.13,0,10.13h-9.35s0,19.47,0,19.47h9.34v20.25h10.13s0,9.35,0,9.35h10.13s0,10.12,0,10.12h-20.25v10.13s-9.35,0-9.35,0v10.13s-10.12,0-10.12,0v9.35h10.13s0,10.12,0,10.12h19.47v-19.47c6.74-.06,13.51.08,20.25,0-.03-3.37.03-6.76,0-10.13h9.35v10.13c-3.11.02-6.24-.04-9.35,0ZM2499.91,1195.7h-10.13v10.13h10.13v-10.13ZM2549.74,1195.7v29.6h9.35s0,10.13,0,10.13h20.25v-10.13s-10.12,0-10.12,0v-19.47h-10.13s0-10.13,0-10.13h-9.35ZM2787.24,1195.7h-20.25v10.13h20.25v-10.13ZM2836.29,1195.7h-39.71v20.25h30.37v-10.13s9.35,0,9.35,0v-10.13ZM2579.33,1245.55v19.47h10.13s0,10.13,0,10.13h9.35s0-10.13,0-10.13h10.13s0-10.12,0-10.12h-19.47v-9.35s-10.12,0-10.12,0ZM2757.65,1304.75c3.11-.04,6.24.03,9.35,0v-10.13s20.24,0,20.24,0v-9.35s9.35,0,9.35,0v-10.13s-9.36-.44-9.36-.44v-9.68s9.36,0,9.36,0v-10.13h-29.59v10.13h-19.47v20.25h-10.12v19.47c3.36.03,6.76-.04,10.12,0-.02,1.99-.52,19.34.45,19.49h9.68c-.06-6.49.06-13.01,0-19.49ZM2569.21,1265.02h-19.47v10.13h19.47v-10.13ZM2836.29,1285.27c-.05-3.37.04-6.76,0-10.13h-9.35s0-10.13,0-10.13h-10.13v20.25c6.48.05,12.99-.07,19.47,0,.05,3.11-.04,6.24,0,9.35h10.13s0-9.35,0-9.35c-3.37-.02-6.76.04-10.13,0ZM2579.34,1285.27h-10.13v9.35h10.13v-9.35ZM2896.25,1304.75c-.02-3.37.01-6.76,0-10.13h-10.13v10.13c3.36.03,6.76-.06,10.13,0,.02,3.37-.01,6.76,0,10.13h9.35v-10.13c-3.11-.03-6.24.05-9.35,0ZM2836.3,1304.74h-9.35v10.13h9.35v-10.13ZM2737.41,1324.21h-10.13v10.13h10.13v-10.13ZM2806.7,1324.22h-19.47v10.13h19.47v-10.13ZM2777.12,1344.46h-10.13v10.13h10.13v-10.13Z"/>
      <path class="cls-2" d="M2233.6-108.91,2233.6-41.15h9.35s0-10.13,0-10.13h9.35s0-9.35,0-9.35h-9.35s0-20.25,0-20.25h-9.34M2233.6,77.24h9.35s0,10.13,0,10.13h9.35v-19.48h-9.35s0-10.13,0-10.13h-9.35M2648.63-108.91v8.57s10.13,0,10.13,0v8.9s-10.13.45-10.13.45v20.25h-10.12v19.47h10.12v20.25l10.14.45v8.9s-10.14,0-10.14,0v10.13s-20.24,0-20.24,0V28.17h10.12v69.32h-10.13s0,10.13,0,10.13h-9.35s0,29.59,0,29.59h-10.13s0,9.35,0,9.35h-10.13s0,20.25,0,20.25h-9.35s0-10.13,0-10.13h-20.25v10.13s-10.13,0-10.13,0v9.35s-19.46,0-19.46,0v10.13s-10.13,0-10.13,0v10.13s-19.46,0-19.46,0v29.6h-10.13s0,10.13,0,10.13l10.14.44v8.9s-10.14,0-10.14,0v10.13s-19.46,0-19.46,0l-.45-10.14h-9.68s0,10.14,0,10.14h-19.47v-19.47h-30.37v9.35h-38.93v10.13s-10.13,0-10.13,0v-10.13s-10.12,0-10.12,0v-9.35s-10.12,0-10.12,0v-10.13s-29.59,0-29.59,0v-29.6h-9.34v19.47h-20.25v-29.6h-9.35s0-10.13,0-10.13h-10.13s0-9.34,0-9.34h-20.25v-10.13s-9.35,0-9.35,0v-10.13h9.35s0-9.35,0-9.35h10.13s0-20.25,0-20.25h-19.47v-9.35s-9.34,0-9.34,0M2341.84-11.55h-49.83V-1.42s-9.34,0-9.34,0v29.6h9.34v19.47h10.13s0,10.13,0,10.13h10.13s0,10.13,0,10.13h9.35s0,9.35,0,9.35h10.13s0,10.13,0,10.13h10.13v-19.48h9.34v-29.6h20.25l.45,9.36h9.68s0-9.36,0-9.36h9.35s0-20.25,0-20.25h-9.35s0-10.13,0-10.13h-20.25V-1.42h-19.47v-10.13ZM2411.14,97.49c3.11-.03,6.24.02,9.35,0v-10.13s30.36,0,30.36,0v10.13h29.59v-10.13h29.59v-10.13s10.13,0,10.13,0v-9.35s9.34,0,9.34,0v-10.13s10.12,0,10.12,0v-10.13s10.12,0,10.12,0v-19.47l9.36-.45v-9.68s-9.36,0-9.36,0V7.92s-20.24,0-20.24,0V-1.42h-59.18V7.92h-19.47v10.13s-10.13,0-10.13,0v10.13s-10.12,0-10.12,0v19.47h-10.12v29.6h-9.35c0,6.74.03,13.51,0,20.25-3.37.03-6.76-.03-10.13,0v-10.13s-19.46,0-19.46,0v10.13s9.34,0,9.34,0v29.6h10.13s0,10.13,0,10.13h10.13c.02-13.23-.05-26.5,0-39.73Z"/>
      <polygon class="cls-2" points="2341.84 245.48 2351.19 245.48 2351.18 255.61 2361.31 255.6 2361.3 265.73 2381.55 265.73 2381.55 285.2 2351.18 285.2 2351.18 265.73 2341.84 265.73 2341.84 245.48"/>
      <rect class="cls-2" x="2331.71" y="503.28" width="10.13" height="9.35"/>
      <polygon class="cls-2" points="2312.25 918.43 2312.25 938.68 2302.12 938.68 2302.13 928.55 2292 928.55 2292 918.43 2312.25 918.43"/>
      <polygon class="cls-2" points="2252.29 978.4 2262.42 978.39 2262.41 987.75 2272.54 987.74 2272.54 997.87 2252.29 997.87 2252.29 978.4"/>
      <path class="cls-2" d="M2430.61,720.59c.07-6.48-.05-13,0-19.48h10.13v19.48c-3.36.02-6.76-.02-10.12,0-.04,3.37.03,6.76,0,10.13-3.37.02-6.76-.04-10.13,0-.02,3.37.01,6.76,0,10.13h-9.35s0,9.35,0,9.35c-6.74,0-13.51-.03-20.25,0-.06,3.36.04,6.76,0,10.13h-29.59v-10.13c9.85-.02,19.74.04,29.59,0,.05-3.11-.04-6.24,0-9.35h10.13s0-10.13,0-10.13c6.48-.04,12.99.07,19.47,0,.02-3.37-.01-6.76,0-10.13,3.37-.01,6.76.03,10.13,0Z"/>
    </g>
  </g>
</svg>